<?xml version="1.0" encoding="UTF-8"?>
<svg width="729px" height="446px" viewBox="0 0 729 446" version="1.1" xmlns="http://www.w3.org/2000/svg" xmlns:xlink="http://www.w3.org/1999/xlink">
    <!-- Generator: Sketch 52.5 (67469) - http://www.bohemiancoding.com/sketch -->
    <title>Group 38</title>
    <desc>Created with Sketch.</desc>
    <defs>
        <polygon id="path-1" points="0 0.0545192968 695.873838 0.0545192968 695.873838 320.419523 0 320.419523"></polygon>
    </defs>
    <g id="Design" stroke="none" stroke-width="1" fill="none" fill-rule="evenodd">
        <g id="D-Home-sticky-navigation" transform="translate(-356.000000, -194.000000)">
            <g id="Group-38" transform="translate(356.000000, 148.000000)">
                <g id="Group-3">
                    <mask id="mask-2" fill="white">
                        <use xlink:href="#path-1"></use>
                    </mask>
                    <g id="Clip-2"></g>
                    <path d="M74.8105938,263.877483 L87.6912742,247.626586 L112.852986,267.602793 C124.556625,276.893138 133.272491,290.253414 120.740078,306.065345 L117.838718,309.726448 C104.493243,326.563069 89.7128,320.553828 78.7410474,311.842655 L12.3252845,259.11569 C1.20689278,250.289207 -5.64194227,236.978724 6.19393402,222.044724 L9.21182062,218.238172 C23.6007897,200.083345 37.2212124,207.557552 47.9009959,216.035483 L67.3568722,231.483138 L54.4761918,247.734034 L35.3122845,232.519621 C30.6316144,228.803483 26.9839649,228.292448 23.7343361,232.392517 C20.4847072,236.491276 22.0139443,239.375345 26.8412536,243.206793 L91.5012742,294.540862 C96.4752227,298.490241 100.354614,298.707759 103.139449,295.193414 C106.272553,291.241414 104.654285,287.569828 100.118944,283.97031 L74.8105938,263.877483 Z" id="Fill-1" fill="#EDFF3B" mask="url(#mask-2)"></path>
                </g>
                <path d="M100.262147,170.515385 C95.7679209,165.040727 91.650933,163.845068 87.9137941,166.927097 C83.7445934,170.364946 84.2928289,174.26196 88.9058394,179.880516 L139.532781,241.538109 C143.316911,246.148071 147.568347,248.683289 152.168305,244.889619 C156.624676,241.214993 154.673219,236.78294 150.889088,232.172978 L100.262147,170.515385 Z M166.473336,217.388133 C178.774697,232.37051 182.14243,246.748517 166.473336,259.669232 L163.742601,261.921887 C148.217093,274.724867 134.357176,269.000351 122.05451,254.017973 L73.0840228,194.377565 C60.7826615,179.395188 58.3195176,165.23826 73.7014404,152.554322 L76.4321755,150.301668 C92.2448549,137.26191 105.318967,142.909245 117.384065,157.603827 L166.473336,217.388133 Z" id="Fill-4" fill="#EDFF3B"></path>
                <polygon id="Fill-6" fill="#EDFF3B" points="148.95612 101.082661 199.2946 158.87105 165.080697 92.7967539 182.203387 84 246 207.204202 230.705654 215.062879 176.052072 153.411131 212.752732 224.286863 195.795301 233 132 109.794492"></polygon>
                <path d="M274.431349,137.18054 L294.574527,131.704607 L303.108564,162.738391 C307.078099,177.172556 306.19686,193.117686 286.5972,198.445408 L282.060401,199.678313 C261.191652,205.352297 252.767109,191.740505 249.046908,178.208721 L226.521217,96.2966348 C222.750885,82.5838496 225.117567,67.7850591 243.62755,62.7537588 L248.346401,61.4710133 C270.848346,55.3550193 277.457641,69.4586615 281.078901,82.6297556 L287.678961,106.62549 L267.534464,112.101423 L261.034664,88.4663787 C259.447642,82.6927125 256.789413,80.1180403 251.707775,81.4991559 C246.627457,82.8802714 246.149899,86.1133671 247.788371,92.0667226 L269.717774,171.814668 C271.405057,177.949024 274.426072,180.424015 278.780819,179.240951 C283.680404,177.908364 284.552409,173.986678 283.014197,168.394013 L274.431349,137.18054 Z" id="Fill-8" fill="#EDFF3B"></path>
                <polygon id="Fill-10" fill="#EDFF3B" points="360.392567 46 361.771637 66.1313073 335.216765 67.9903678 337.706608 104.338343 358.545599 102.880179 359.988179 123.942982 339.150484 125.401146 341.895662 165.477723 369.55742 163.541366 371 184.605479 322.500547 188 313 49.3172244"></polygon>
                <polygon id="Fill-12" fill="#EDFF3B" points="418.173917 49.5315634 426.171487 125.681147 436.034593 51.9389023 455 54.494003 436.607802 192 419.668169 189.716886 410.362639 107.934051 399.781719 187.03756 381 184.505997 399.392198 47"></polygon>
                <polygon id="Fill-14" fill="#EDFF3B" points="548 81.8071095 541.259017 100.839627 524.480115 94.92268 484.781608 207 465 200.025473 504.697194 87.948153 487.918293 82.032517 494.659276 63"></polygon>
                <path d="M572.139346,159.587873 L576.972783,162.490397 C581.967555,165.488192 585.539406,163.276062 588.77404,158.028289 L598.968559,141.491473 C602.104012,136.404226 602.705712,133.278531 597.066923,129.893124 L592.233485,126.9906 L572.139346,159.587873 Z M529.207049,229.234088 L511,218.30264 L583.927379,100 L613.412007,117.702263 C625.656275,125.055149 628.58014,133.563041 620.345444,146.919349 L607.406908,167.909137 C601.330398,177.7678 594.207855,178.937162 590.200929,178.274175 C593.149921,182.442638 595.154706,187.784378 590.155967,195.894217 L564.572471,237.396131 C561.533554,242.324157 561.226753,244.972187 560.954335,247.205199 L560.463718,248 L542.418004,237.165129 C542.396845,235.409781 542.704969,232.763055 546.625938,226.402039 L568.582041,190.784783 C571.816676,185.53701 572.222658,182.731063 566.422533,179.247773 L561.749108,176.443132 L529.207049,229.234088 Z" id="Fill-16" fill="#EDFF3B"></path>
                <polygon id="Fill-18" fill="#EDFF3B" points="583.89037 269 568 255.349671 658.10963 151 674 164.650329"></polygon>
                <path d="M663.631269,265.74484 L677.007433,281.639769 L652.41585,302.398778 C640.97885,312.053398 626.143396,317.964095 613.130416,302.498581 L610.117436,298.918807 C596.260087,282.451324 605.090557,269.117128 615.814302,260.065265 L680.723179,205.272145 C691.588526,196.099468 706.001795,192.014114 718.293653,206.620798 L721.425946,210.34371 C736.368912,228.099438 726.332201,240.000937 715.895594,248.811172 L696.880253,264.863685 L683.504089,248.968755 L702.233603,233.157871 C706.808141,229.29576 708.034049,225.81185 704.660508,221.802661 C701.285655,217.793473 698.154673,218.721903 693.437222,222.704827 L630.243305,276.050805 C625.38294,280.154544 624.39828,283.923417 627.290636,287.361366 C630.543554,291.227416 634.465148,290.365959 638.896773,286.624662 L663.631269,265.74484 Z" id="Fill-20" fill="#EDFF3B"></path>
                <polygon id="Fill-22" fill="#FFFFFF" points="91 441.650458 105.567303 396 124.669145 402.14802 116.507757 427.726192 151.174449 438.883129 157.636362 418.632981 177.622452 425.064796 171.161841 445.314945 229 463.927714 222.594085 484"></polygon>
                <polygon id="Fill-24" fill="#FFFFFF" points="161.95742 308 177.539597 320.711019 160.754389 341.686826 188.888405 364.637568 202.060618 348.176273 218.363313 361.475571 205.1924 377.936865 236.212389 403.240721 253.697306 381.389062 270 394.688359 239.342871 433 132 345.437101"></polygon>
                <path d="M234.182549,253.332371 C249.549191,245.113732 259.129352,248.689961 266.924406,263.195524 L277.731007,283.306076 L259.722197,292.938421 L250.243253,275.301198 C248.028301,271.180731 245.518898,268.491019 241.05876,270.876483 C236.597307,273.263259 237.111281,276.595565 240.212215,282.36448 L241.451799,284.672571 C245.173182,291.595532 248.531759,294.67998 259.151699,299.398452 L279.286074,308.365909 C293.559042,314.738075 299.479602,319.42245 307.009125,333.43361 L309.136005,337.39015 C318.791093,355.356538 316.949462,370.136187 300.426051,378.973814 L296.791426,380.918643 C281.756041,388.960241 269.649389,385.036486 261.499417,369.872593 L248.300405,345.311098 L266.8061,335.413847 L278.321222,356.842371 C281.422155,362.611287 284.910869,364.352846 289.04238,362.144423 C293.502518,359.757647 293.649743,356.071259 289.48537,348.32473 L287.980254,345.522235 C283.196746,336.620349 280.864803,334.261113 269.306301,328.982667 L249.259998,320.180448 C235.83752,314.203018 229.271534,307.527915 222.717379,295.330442 L220.590499,291.373902 C211.732005,274.889414 216.008111,263.053892 230.712239,255.188023 L234.182549,253.332371 Z" id="Fill-26" fill="#FFFFFF"></path>
                <polygon id="Fill-28" fill="#FFFFFF" points="371.294696 221 373 241.138373 355.292389 242.639532 365.336628 361.231151 344.458464 363 334.414226 244.408381 316.706615 245.909541 315 225.771169"></polygon>
                <polygon id="Fill-30" fill="#FFFFFF" points="410.182464 367 390 362.270103 420.81625 228 441 232.729897"></polygon>
                <polygon id="Fill-32" fill="#FFFFFF" points="489.43579 248 507.682049 259.222858 465.984702 345.719129 524.023307 269.273804 541 279.71626 453.736587 389 432 375.631037"></polygon>
                <path d="M515.272583,384.845136 L521.887771,393.586699 L559.098369,358.178086 L515.272583,384.845136 Z M506.855142,407.863671 L497.550219,395.564936 L475.324173,409.2547 L464,394.288738 L583.976467,324 L599,343.855443 L500.102219,442 L487.881467,425.849184 L506.855142,407.863671 Z" id="Fill-34" fill="#FFFFFF"></path>
                <polygon id="Fill-36" fill="#FFFFFF" points="639 427.294113 527.394975 461.044906 534.710826 485.830274 514.305914 492 501 446.920518 633.009936 407"></polygon>
            </g>
        </g>
    </g>
</svg>